<svg width="24" height="24" viewBox="0 0 24 24" fill="none" xmlns="http://www.w3.org/2000/svg">
<path fill-rule="evenodd" clip-rule="evenodd" d="M12 3C7.02944 3 3 7.02944 3 12C3 16.9706 7.02944 21 12 21C16.9706 21 21 16.9706 21 12C21 7.02944 16.9706 3 12 3ZM1 12C1 5.92487 5.92487 1 12 1C18.0751 1 23 5.92487 23 12C23 18.0751 18.0751 23 12 23C5.92487 23 1 18.0751 1 12Z" fill="#4B5563"/>
<path fill-rule="evenodd" clip-rule="evenodd" d="M10.2323 7.323C11.1822 6.9639 12.219 6.9026 13.2047 7.14724C14.1904 7.39188 15.0782 7.93088 15.75 8.6925C16.1153 9.10668 16.0757 9.73861 15.6615 10.1039C15.2473 10.4693 14.6154 10.4297 14.2501 10.0155C13.847 9.55853 13.3143 9.23513 12.7229 9.08834C12.1315 8.94156 11.5094 8.97834 10.9395 9.1938C10.3695 9.40926 9.87863 9.79318 9.53222 10.2945C9.1858 10.7958 9.00024 11.3907 9.00024 12C9.00024 12.6093 9.1858 13.2042 9.53222 13.7055C9.87863 14.2068 10.3695 14.5907 10.9395 14.8062C11.5094 15.0217 12.1315 15.0584 12.7229 14.9117C13.3143 14.7649 13.847 14.4415 14.2501 13.9845C14.6154 13.5703 15.2473 13.5307 15.6615 13.8961C16.0757 14.2614 16.1153 14.8933 15.75 15.3075C15.0782 16.0691 14.1904 16.6081 13.2047 16.8528C12.219 17.0974 11.1822 17.0361 10.2323 16.677C9.28232 16.3179 8.46423 15.678 7.88686 14.8426C7.3095 14.0071 7.00024 13.0156 7.00024 12C7.00024 10.9844 7.3095 9.99293 7.88686 9.15745C8.46423 8.32196 9.28232 7.6821 10.2323 7.323Z" fill="#4B5563"/>
</svg>
