<svg width="32" height="32" viewBox="0 0 32 32" fill="none" xmlns="http://www.w3.org/2000/svg">
<path d="M16.0013 29.3337C23.3651 29.3337 29.3346 23.3641 29.3346 16.0003C29.3346 8.63653 23.3651 2.66699 16.0013 2.66699C8.63751 2.66699 2.66797 8.63653 2.66797 16.0003C2.66797 23.3641 8.63751 29.3337 16.0013 29.3337Z" stroke="#4B5563" stroke-width="2" stroke-linecap="round" stroke-linejoin="round"/>
<path d="M20.001 12.4723C19.2844 11.6599 18.3374 11.085 17.2861 10.8241C16.2347 10.5631 15.1288 10.6285 14.1155 11.0115C13.1022 11.3946 12.2295 12.0771 11.6137 12.9683C10.9978 13.8595 10.668 14.9171 10.668 16.0003C10.668 17.0836 10.9978 18.1412 11.6137 19.0324C12.2295 19.9236 13.1022 20.6061 14.1155 20.9891C15.1288 21.3722 16.2347 21.4376 17.2861 21.1766C18.3374 20.9156 19.2844 20.3407 20.001 19.5283" stroke="#4B5563" stroke-width="2" stroke-linecap="round" stroke-linejoin="round"/>
</svg>
