<svg width="24" height="24" viewBox="0 0 24 24" fill="none" xmlns="http://www.w3.org/2000/svg">
<path fill-rule="evenodd" clip-rule="evenodd" d="M4 5C3.44772 5 3 5.44772 3 6V18C3 18.5523 3.44772 19 4 19H20C20.5523 19 21 18.5523 21 18V6C21 5.44772 20.5523 5 20 5H4ZM1 6C1 4.34315 2.34315 3 4 3H20C21.6569 3 23 4.34315 23 6V18C23 19.6569 21.6569 21 20 21H4C2.34315 21 1 19.6569 1 18V6Z" fill="#4B5563"/>
<path fill-rule="evenodd" clip-rule="evenodd" d="M1.15587 6.46367C1.45208 5.99754 2.07008 5.85978 2.53621 6.15599L11.503 11.854C11.6521 11.9468 11.8242 11.996 11.9999 11.996C12.1755 11.996 12.3476 11.9468 12.4967 11.854C12.4975 11.8535 12.4982 11.853 12.499 11.8526L21.4636 6.15599C21.9297 5.85978 22.5477 5.99754 22.8439 6.46367C23.1401 6.9298 23.0023 7.5478 22.5362 7.84401L13.5608 13.5474C13.093 13.8406 12.552 13.996 11.9999 13.996C11.4478 13.996 10.9068 13.8405 10.439 13.5474L10.4335 13.544L1.46356 7.84401C0.997421 7.5478 0.859667 6.9298 1.15587 6.46367Z" fill="#4B5563"/>
</svg>
