<svg width="32" height="32" viewBox="0 0 32 32" fill="none" xmlns="http://www.w3.org/2000/svg">
<path d="M19.9984 29.3337V24.0003C20.1839 22.33 19.705 20.6538 18.6651 19.3337C22.6651 19.3337 26.6651 16.667 26.6651 12.0003C26.7718 10.3337 26.3051 8.69366 25.3318 7.33366C25.7051 5.80033 25.7051 4.20033 25.3318 2.66699C25.3318 2.66699 23.9984 2.66699 21.3318 4.66699C17.8118 4.00033 14.1851 4.00033 10.6651 4.66699C7.99842 2.66699 6.66509 2.66699 6.66509 2.66699C6.26509 4.20033 6.26509 5.80033 6.66509 7.33366C5.69425 8.68817 5.22305 10.3374 5.33176 12.0003C5.33176 16.667 9.33176 19.3337 13.3318 19.3337C12.8118 19.987 12.4251 20.7337 12.1984 21.5337C11.9718 22.3337 11.9051 23.1737 11.9984 24.0003V29.3337" stroke="#4B5563" stroke-width="2" stroke-linecap="round" stroke-linejoin="round"/>
<path d="M12.0013 23.9997C5.98797 26.6663 5.33464 21.333 2.66797 21.333" stroke="#4B5563" stroke-width="2" stroke-linecap="round" stroke-linejoin="round"/>
</svg>
