<svg width="24" height="24" viewBox="0 0 24 24" fill="none" xmlns="http://www.w3.org/2000/svg">
<path fill-rule="evenodd" clip-rule="evenodd" d="M12 9C10.3431 9 9 10.3431 9 12C9 13.6569 10.3431 15 12 15C13.6569 15 15 13.6569 15 12C15 10.3431 13.6569 9 12 9ZM7 12C7 9.23858 9.23858 7 12 7C14.7614 7 17 9.23858 17 12C17 14.7614 14.7614 17 12 17C9.23858 17 7 14.7614 7 12Z" fill="#4B5563"/>
<path fill-rule="evenodd" clip-rule="evenodd" d="M12 1C12.5523 1 13 1.44772 13 2V4C13 4.55228 12.5523 5 12 5C11.4477 5 11 4.55228 11 4V2C11 1.44772 11.4477 1 12 1Z" fill="#4B5563"/>
<path fill-rule="evenodd" clip-rule="evenodd" d="M12 19C12.5523 19 13 19.4477 13 20V22C13 22.5523 12.5523 23 12 23C11.4477 23 11 22.5523 11 22V20C11 19.4477 11.4477 19 12 19Z" fill="#4B5563"/>
<path fill-rule="evenodd" clip-rule="evenodd" d="M4.22282 4.22289C4.61335 3.83237 5.24651 3.83237 5.63704 4.22289L7.04704 5.63289C7.43756 6.02342 7.43756 6.65658 7.04704 7.04711C6.65651 7.43763 6.02335 7.43763 5.63283 7.04711L4.22282 5.63711C3.8323 5.24658 3.8323 4.61342 4.22282 4.22289Z" fill="#4B5563"/>
<path fill-rule="evenodd" clip-rule="evenodd" d="M16.9528 16.9529C17.3433 16.5624 17.9765 16.5624 18.367 16.9529L19.777 18.3629C20.1675 18.7534 20.1675 19.3866 19.777 19.7771C19.3865 20.1676 18.7533 20.1676 18.3628 19.7771L16.9528 18.3671C16.5623 17.9766 16.5623 17.3434 16.9528 16.9529Z" fill="#4B5563"/>
<path fill-rule="evenodd" clip-rule="evenodd" d="M1 12C1 11.4477 1.44772 11 2 11H4C4.55228 11 5 11.4477 5 12C5 12.5523 4.55228 13 4 13H2C1.44772 13 1 12.5523 1 12Z" fill="#4B5563"/>
<path fill-rule="evenodd" clip-rule="evenodd" d="M19 12C19 11.4477 19.4477 11 20 11H22C22.5523 11 23 11.4477 23 12C23 12.5523 22.5523 13 22 13H20C19.4477 13 19 12.5523 19 12Z" fill="#4B5563"/>
<path fill-rule="evenodd" clip-rule="evenodd" d="M7.04704 16.9529C7.43756 17.3434 7.43756 17.9766 7.04704 18.3671L5.63704 19.7771C5.24651 20.1676 4.61335 20.1676 4.22282 19.7771C3.8323 19.3866 3.8323 18.7534 4.22282 18.3629L5.63283 16.9529C6.02335 16.5624 6.65651 16.5624 7.04704 16.9529Z" fill="#4B5563"/>
<path fill-rule="evenodd" clip-rule="evenodd" d="M19.777 4.22289C20.1675 4.61342 20.1675 5.24658 19.777 5.63711L18.367 7.04711C17.9765 7.43763 17.3433 7.43763 16.9528 7.04711C16.5623 6.65658 16.5623 6.02342 16.9528 5.63289L18.3628 4.22289C18.7533 3.83237 19.3865 3.83237 19.777 4.22289Z" fill="#4B5563"/>
</svg>
