<svg width="24" height="24" viewBox="0 0 24 24" fill="none" xmlns="http://www.w3.org/2000/svg">
<g clip-path="url(#clip0_169_423)">
<path fill-rule="evenodd" clip-rule="evenodd" d="M14.6 7.51651V8.45345C15.5039 7.89189 16.5474 7.56457 18.133 7.56457C23.2937 7.56457 23.9543 11.4219 23.9543 14.7823V23.9475L17.9874 24V15.2342C17.9874 13.7628 17.4604 13.4835 16.4859 13.4835C15.5595 13.4835 14.9844 13.7763 14.9844 15.2342V24L8.93934 23.9475V7.5165L14.6 7.51651ZM6.006 7.50661V23.9931H0V7.50663H6.006V7.50661ZM4.5045 9.00811H1.5015V22.4916H4.5045V9.00813V9.00811ZM13.0985 9.01801H10.4408V22.4595L13.4829 22.4865V15.2342C13.4829 12.4039 15.3643 11.982 16.4859 11.982C17.8553 11.982 19.4889 12.5465 19.4889 15.2342V22.4865L22.4528 22.4595V14.7823C22.4528 10.6156 21.2832 9.06606 18.133 9.06606C16.2396 9.06606 15.4198 9.62762 14.6165 10.3033L14.4078 10.4805H13.0985V9.01801ZM3.003 0C4.65916 0 6.006 1.34685 6.006 3.003C6.006 4.65916 4.65916 6.006 3.003 6.006C1.34685 6.006 0 4.65916 0 3.003C0 1.34685 1.34685 0 3.003 0ZM3.003 1.5015C2.17567 1.5015 1.5015 2.17567 1.5015 3.003C1.5015 3.83032 2.17567 4.5045 3.003 4.5045C3.83032 4.5045 4.5045 3.83032 4.5045 3.003C4.5045 2.17567 3.83032 1.5015 3.003 1.5015Z" fill="black"/>
</g>
<defs>
<clipPath id="clip0_169_423">
<rect width="24" height="24" fill="white"/>
</clipPath>
</defs>
</svg>
