<svg width="32" height="32" viewBox="0 0 32 32" fill="none" xmlns="http://www.w3.org/2000/svg">
<path d="M26.6654 13.3337C26.6654 21.3337 15.9987 29.3337 15.9987 29.3337C15.9987 29.3337 5.33203 21.3337 5.33203 13.3337C5.33203 10.5047 6.45584 7.79157 8.45623 5.79119C10.4566 3.7908 13.1697 2.66699 15.9987 2.66699C18.8277 2.66699 21.5408 3.7908 23.5412 5.79119C25.5416 7.79157 26.6654 10.5047 26.6654 13.3337Z" stroke="#4B5563" stroke-width="2" stroke-linecap="round" stroke-linejoin="round"/>
<path d="M16 17.333C18.2091 17.333 20 15.5421 20 13.333C20 11.1239 18.2091 9.33301 16 9.33301C13.7909 9.33301 12 11.1239 12 13.333C12 15.5421 13.7909 17.333 16 17.333Z" stroke="#4B5563" stroke-width="2" stroke-linecap="round" stroke-linejoin="round"/>
</svg>
