<svg width="24" height="24" viewBox="0 0 24 24" fill="none" xmlns="http://www.w3.org/2000/svg">
<path fill-rule="evenodd" clip-rule="evenodd" d="M21.8013 5.76108C21.8013 5.76113 21.8013 5.76119 21.8013 5.76125L18.9916 18.9354L18.9906 18.9398C18.8678 19.4742 18.6119 19.9742 18.1142 20.1995C17.6134 20.4262 17.0774 20.2804 16.6217 20.024L16.5925 20.0076L12.6632 17.1346L10.9678 18.7561C10.8176 18.9383 10.6297 19.0861 10.4169 19.1893C10.1904 19.2991 9.94179 19.3553 9.69015 19.3537L9.09006 19.35L9.45677 14.1893L14.282 10.0608L7.66708 13.9232L3.20743 12.537L3.2069 12.5368C2.9295 12.45 2.66898 12.323 2.47162 12.1389C2.26634 11.9474 2.10853 11.6689 2.13653 11.3298C2.16305 11.0085 2.34728 10.7549 2.55299 10.573C2.76168 10.3884 3.03786 10.2351 3.35965 10.108L3.36233 10.107L19.8668 3.7865L19.8687 3.78582C20.3876 3.59123 21.001 3.60529 21.4372 4.03167C21.8627 4.44757 21.9449 5.08876 21.8013 5.76108ZM17.5652 8.1636C17.5652 8.16369 17.5637 8.16392 17.5608 8.16403C17.5638 8.16357 17.5653 8.16351 17.5652 8.1636ZM17.2772 7.49653C17.2775 7.49653 17.2753 7.49916 17.2696 7.50439C17.274 7.49914 17.2768 7.49653 17.2772 7.49653ZM16.7982 7.28886C16.9604 7.18208 17.1306 7.10829 17.2974 7.06987C17.4596 7.0325 17.6607 7.0194 17.8544 7.08724C18.0639 7.16058 18.3355 7.37401 18.3245 7.75002C18.3159 8.04122 18.1314 8.24473 18.0079 8.35344L18.0049 8.35607L10.5456 14.7382L10.3272 17.8121L12.5666 15.6704L17.2008 19.0587C17.5048 19.2235 17.6278 19.1848 17.6503 19.1746C17.6766 19.1627 17.8024 19.0839 17.8933 18.6919L20.7011 5.52643L20.7011 5.52626C20.805 5.03989 20.6847 4.86927 20.6508 4.83615C20.6276 4.81351 20.5252 4.74158 20.2653 4.83857C20.2648 4.83878 20.2642 4.83898 20.2637 4.83919L3.77013 11.1555C3.56158 11.238 3.42407 11.3178 3.33946 11.3821C3.38798 11.4072 3.45423 11.4354 3.54241 11.463C3.54259 11.4631 3.54278 11.4631 3.54296 11.4632L7.52778 12.7018L16.7982 7.28886ZM3.24531 11.4729C3.24527 11.4729 3.24558 11.4722 3.24633 11.471C3.24573 11.4723 3.24535 11.4729 3.24531 11.4729Z" fill="#D1D5DB"/>
</svg>
