<svg width="24" height="24" viewBox="0 0 24 24" fill="none" xmlns="http://www.w3.org/2000/svg">
<path fill-rule="evenodd" clip-rule="evenodd" d="M14.4996 5.36185C13.3849 5.94267 12.6282 7.15861 12.9779 8.79047C13.0401 9.08073 12.9701 9.38361 12.7869 9.61718C12.6037 9.85074 12.3262 9.99084 12.0295 9.99957C8.8533 10.093 5.68323 8.90756 3.33194 6.77794C2.17223 10.5584 4.34471 14.8594 8.28743 16.0422C8.63595 16.1467 8.90018 16.4323 8.97734 16.7879C9.0545 17.1435 8.93243 17.513 8.65859 17.7526C7.72719 18.5676 6.6254 19.167 5.44473 19.5425C12.6551 21.7458 20.3026 15.6202 19.0126 7.55799C18.962 7.24136 19.0662 6.91964 19.293 6.69289C19.4741 6.51174 19.6445 6.30782 19.8029 6.09235C19.5442 6.15603 19.2701 6.2 19.0001 6.2C18.7468 6.2 18.5029 6.10388 18.3178 5.93106C17.1476 4.83894 15.6361 4.76977 14.4996 5.36185ZM22.0001 4C22.9488 4.31623 22.9487 4.31641 22.9486 4.3166L22.9473 4.32054L22.9448 4.3279L22.9367 4.35157C22.9299 4.37122 22.9203 4.39854 22.9079 4.4328C22.8831 4.50127 22.8472 4.59773 22.8003 4.71637C22.7066 4.95309 22.5679 5.28112 22.3853 5.65317C22.0842 6.26636 21.6424 7.04365 21.0565 7.72868C22.3643 18.3194 10.6486 25.9319 1.44762 19.8335C1.07288 19.5852 0.909959 19.1172 1.0494 18.6898C1.18885 18.2624 1.59638 17.9806 2.04549 18.001C3.40598 18.0629 4.75236 17.7814 5.91186 17.2016C1.55046 14.7954 -0.367411 9.10201 2.12146 4.52249C2.27908 4.23246 2.56968 4.0389 2.89805 4.00522C3.22641 3.97154 3.55025 4.10207 3.76347 4.35406C5.5321 6.44426 8.16427 7.75901 10.8911 7.9736C10.9017 5.98026 12.0241 4.39647 13.5755 3.58815C15.2934 2.69313 17.5349 2.74858 19.3144 4.1528C19.4009 4.13183 19.5004 4.10311 19.6127 4.06516C19.8908 3.97116 20.1895 3.84068 20.4727 3.70194C20.7537 3.56433 21.0052 3.42561 21.1869 3.32097C21.2773 3.2689 21.3493 3.2259 21.3977 3.19653C21.4219 3.18186 21.4401 3.17064 21.4518 3.16343L21.4642 3.15573L21.4661 3.15451C21.8234 2.92894 22.2842 2.95221 22.6168 3.21285C22.9496 3.47353 23.0823 3.91562 22.9486 4.3166L22.0001 4Z" fill="#4B5563"/>
</svg>
